<?xml version="1.0" encoding="utf-8"?>
<!-- Generator: Adobe Illustrator 24.3.0, SVG Export Plug-In . SVG Version: 6.00 Build 0)  -->
<svg version="1.1" id="Layer_1" xmlns="http://www.w3.org/2000/svg" xmlns:xlink="http://www.w3.org/1999/xlink" x="0px" y="0px"
	 viewBox="0 0 40 40" style="enable-background:new 0 0 40 40;" xml:space="preserve">
<style type="text/css">
	.st0{fill:#A3DBF3;}
	.st1{fill-rule:evenodd;clip-rule:evenodd;fill:#85D1F0;}
	.st2{fill:url(#SVGID_1_);}
	.st3{fill-rule:evenodd;clip-rule:evenodd;fill:url(#SVGID_2_);}
	.st4{fill-rule:evenodd;clip-rule:evenodd;fill:#0094DA;}
	.st5{fill-rule:evenodd;clip-rule:evenodd;fill:#1F2F4F;}
</style>
<g>
	<path class="st0" d="M16,32c8.8,0,16-7.2,16-16S24.8,0,16,0S0,7.2,0,16S7.2,32,16,32z"/>
	<path class="st1" d="M18.5,0.2c0.1,1,0.1,1.8,0.1,2.8c0,10.3-3.7,19.8-9.8,27.3C11,31.4,13.4,32,16,32c8.8,0,16-7.2,16-16
		C32,8,26.2,1.4,18.5,0.2z"/>
	
		<radialGradient id="SVGID_1_" cx="-1216.0505" cy="308.1429" r="0.7904" gradientTransform="matrix(20.6758 0 0 -20.6758 25158.8164 6387.1001)" gradientUnits="userSpaceOnUse">
		<stop  offset="0.58" style="stop-color:#EBF7FD"/>
		<stop  offset="0.853" style="stop-color:#C4E3F4"/>
		<stop  offset="0.884" style="stop-color:#C2DFEE"/>
		<stop  offset="0.923" style="stop-color:#BCD3DF"/>
		<stop  offset="0.967" style="stop-color:#B2BEC5"/>
		<stop  offset="0.968" style="stop-color:#B2BEC4"/>
	</radialGradient>
	<path class="st2" d="M16,31.2c8.4,0,15.2-6.8,15.2-15.2S24.4,0.8,16,0.8S0.8,7.6,0.8,16S7.6,31.2,16,31.2z"/>
	
		<linearGradient id="SVGID_2_" gradientUnits="userSpaceOnUse" x1="18.2957" y1="-587.1031" x2="26.7053" y2="-555.7166" gradientTransform="matrix(1 0 0 -1 0 -556)">
		<stop  offset="0.1" style="stop-color:#8EC3DE"/>
		<stop  offset="0.206" style="stop-color:#A7D1E6"/>
		<stop  offset="0.361" style="stop-color:#C5E2F0"/>
		<stop  offset="0.513" style="stop-color:#DAEDF7"/>
		<stop  offset="0.661" style="stop-color:#E7F5FC"/>
		<stop  offset="0.8" style="stop-color:#EBF7FD"/>
		<stop  offset="0.845" style="stop-color:#E5F2F8"/>
		<stop  offset="0.902" style="stop-color:#D6E3EA"/>
		<stop  offset="0.966" style="stop-color:#BCCAD2"/>
		<stop  offset="0.981" style="stop-color:#B4C3CB"/>
	</linearGradient>
	<path class="st3" d="M18.5,1c0,0.6,0.1,1.4,0.1,2c0,10.1-3.4,19.4-9.3,26.6c2,1,4.3,1.6,6.7,1.6c8.4,0,15.2-6.8,15.2-15.2
		C31.2,8.5,25.8,2.2,18.5,1z"/>
	<path class="st4" d="M24,10.6h3.1c0,0,0.3-0.7-0.2-2.2c-0.6-1.5-1.4-2.2-1.6-2.6c-0.7-1-2.4-1.9-2.6-2.1c0,0,0.7,0.6,1.2,1.6
		C24.4,6.8,24.9,9,24,10.6z"/>
	<path class="st4" d="M10,10.1c0,0-1.4,0.9-2.6,3.9c-1.2,3.1-1.4,6-1,7c0,0-1.4-1-1.8-3.5C4.3,14.9,5.7,12.2,10,10.1z"/>
	<path class="st5" d="M21.2,20.3l-0.7-1c-2,1.4-3.5,2.3-4.6,2.8c-0.8,0.3-1.4,0.5-2.1,0.5c-0.6,0-1.2-0.2-1.5-0.7
		c-0.3-0.4-0.5-1.2-0.5-2.3c0-0.7,0.1-1.5,0.2-2.4c3-1.3,4.9-2.2,5.8-2.6c1.8-1,3-2,3.8-3s1.1-1.9,1.1-3c0-1-0.2-1.7-0.8-2.2
		c-0.5-0.4-1.3-0.7-2.4-0.7c-3.1-0.1-5.8,1.8-8.2,5.4c-2.1,3.2-3.1,6.5-3.2,9.8c0,1.6,0.2,2.8,0.8,3.6c0.6,0.7,1.4,1.1,2.5,1.2
		C14.1,25.5,17.4,23.8,21.2,20.3z M18.2,12.3c-1.3,1.3-3.2,2.4-5.7,3.4c0.3-1.8,0.9-3.4,1.6-5.1c0.5-1.1,1.1-2,1.9-2.6
		c0.6-0.4,1.1-0.6,1.7-0.6s1,0.2,1.4,0.6c0.3,0.4,0.5,1,0.5,1.6C19.4,10.6,19,11.4,18.2,12.3z"/>
</g>
</svg>
