<?xml version="1.0" encoding="utf-8"?>
<!-- Generator: Adobe Illustrator 24.3.0, SVG Export Plug-In . SVG Version: 6.00 Build 0)  -->
<svg version="1.1" id="Layer_1" xmlns="http://www.w3.org/2000/svg" xmlns:xlink="http://www.w3.org/1999/xlink" x="0px" y="0px"
	 viewBox="0 0 148 40" style="enable-background:new 0 0 148 40;" xml:space="preserve">
<style type="text/css">
	.st0{fill-rule:evenodd;clip-rule:evenodd;fill:#0094DA;}
	.st1{fill:#A3DBF3;}
	.st2{fill-rule:evenodd;clip-rule:evenodd;fill:#85D1F0;}
	.st3{fill:url(#SVGID_1_);}
	.st4{fill-rule:evenodd;clip-rule:evenodd;fill:url(#SVGID_2_);}
	.st5{fill-rule:evenodd;clip-rule:evenodd;fill:#1F2F4F;}
</style>
<g>
	<g>
		<g>
			<path class="st0" d="M58.2,8.5c0-2.2-1.7-4.5-6.1-4.5c-4.8,0-7.8,4.4-7.8,8.8c0,4.6,3.3,8,7.7,8c5.5,0,6.6-4,6.6-4l-0.2-0.2
				c0,0-2.5,1.8-5.2,1.8c-3.4,0-5.2-2.6-5.2-6.4l0.2-0.1c0,0,1.7,0.9,3.6,0.9C54.7,12.7,58.2,11.6,58.2,8.5z M54.2,8.4
				c0,1.9-1.6,2.7-3.1,2.7c-1.4,0-3-0.5-3-0.7c0-1.2,1.3-5,3.6-5C53.5,5.4,54.2,7,54.2,8.4z"/>
			<path class="st0" d="M62,18.3c-0.3,0.4-0.4,1-0.4,1.3c0,0.2,0,0.5,0,0.6l0,0h6.2c5.4,0,7.4,0.2,7.4,0.2C75,18.6,75,18,72.6,18
				s-5.2,0-6.6,0.5l0-0.1c1.8-2.8,4.8-7.5,8-12c0.4-0.6,0.5-1.2,0.5-1.6V4.4h-6.1c-5.2,0-6.9-0.4-6.9-0.4c0.2,1.2,0.2,2.4,1.5,2.4
				c2,0,5,0,6.7-0.3l0.1,0.2C68.6,8.7,63.6,16.2,62,18.3z"/>
			<path class="st0" d="M80,24.6c1.9,0,3.5-0.8,4.6-3.1l0.6-1.2c-1.1-0.2-2.4-0.9-2.9-2.4c-1-2.9-3-9-4.2-11.4
				c-0.3-0.6-0.7-1.4-1.3-1.9V4.4c0.6-0.2,1.3-0.2,2.5-0.2c1.1,0,2.2,0.3,2.6,1.4c0.7,2.7,2.9,8.8,4.3,12.3
				C90.8,5.3,89,4.2,91.9,4.2c1,0,1.5,0.2,1.5,0.2v0.2c0,0-0.9,0.6-1.7,2.9l-4.9,13.2c-1.8,4.8-4.5,6.8-7.2,6.8
				c-2.2,0-2-1.2-2.1-3.1C78.4,24.5,79.2,24.6,80,24.6z"/>
			<path class="st0" d="M96.3,4.4C97,6.1,97,9.7,97,12.6C97,19,97,22.1,97,25.1c0,1.9,0.8,2.4,2,2.4c0.7,0,1.5-0.2,2.3-0.3
				c0,0-0.6-1.7-0.6-5.3c0-0.5,0-1,0-1.5c0.6,0.1,1,0.2,1.7,0.2c6.6,0,9.7-4,9.7-9.4c0-4-2.3-7.2-6.1-7.2c-4,0-5.3,2.5-5.3,2.5
				l-0.2-0.1c0-0.2,0.1-0.3,0.1-0.6c0-1-1.1-1.8-2.6-1.8C97.4,4.1,96.9,4.2,96.3,4.4z M108.2,11.8c0,3.6-1.7,7.2-5.3,7.2
				c-1.2,0-2.2-0.2-2.2-1v-3.9c0-1.5,0-3,0.2-4.3c0.3-2.4,1.8-3.8,3.8-3.8C106.9,5.9,108.2,9,108.2,11.8z"/>
			<path class="st0" d="M124.3,10.2v0.2c-3.6,0.1-9,1.4-9,6c0,2.3,1.6,4.2,4.4,4.2c2.1,0,3.7-1.1,4.5-2.4l0.2,0.1
				c0,1.7,1.4,2.2,2.8,2.2c2.8,0,3.7-1.9,3.7-1.9l-0.2-0.1c0,0-0.6,0.5-1.3,0.5c-1.6,0-1.7-2.2-1.7-3.5v-0.4c0-1.8,0.1-3.8,0.1-5.5
				c0-2.9-0.6-5.6-5.3-5.6c-2.9,0-5.6,1.9-6.1,3.8l0.2,0.2c1.2-1,3-1.9,4.6-1.9C123.7,6,124.3,7.5,124.3,10.2z M124.2,16.2
				c0,1.2-1.8,2.2-3,2.2s-2.2-0.7-2.2-2.6c0-3.4,3.9-3.9,5.2-4.2C124.3,13.3,124.2,15,124.2,16.2z"/>
			<path class="st0" d="M134.6,24.6c1.9,0,3.5-0.8,4.6-3.1l0.6-1.2c-1.1-0.2-2.4-0.9-2.9-2.4c-1-2.9-3-9-4.2-11.4
				c-0.3-0.6-0.7-1.4-1.3-1.9V4.4c0.6-0.2,1.3-0.2,2.5-0.2c1.1,0,2.2,0.3,2.6,1.4c0.7,2.7,2.9,8.8,4.3,12.3
				c4.6-12.6,2.8-13.7,5.7-13.7c1,0,1.5,0.2,1.5,0.2v0.2c0,0-0.9,0.6-1.7,2.9l-4.9,13.2c-1.8,4.8-4.5,6.8-7.2,6.8
				c-2.2,0-2-1.2-2.1-3.1C132.9,24.5,133.8,24.6,134.6,24.6z"/>
		</g>
		<g>
			<path d="M71.6,32.2c-0.6,0-1.3,0.2-1.8,0.7c-0.1-0.2-0.2-0.3-0.5-0.5c-0.2-0.2-0.6-0.2-1-0.2c-0.5,0-1,0.1-1.4,0.4l0.1-0.3h-1.3
				l-1,5.7h1.4l0.7-4c0.3-0.4,0.7-0.6,1.2-0.6c0.2,0,0.5,0.1,0.6,0.2c0.2,0.2,0.2,0.4,0.2,0.6l-0.6,3.7h1.4l0.6-3.7
				c0.1-0.3,0.2-0.5,0.5-0.7c0.2-0.2,0.5-0.2,0.8-0.2c0.6,0,0.6,0.2,0.7,0.5c0,0.2,0,0.2,0,0.4l-0.6,3.7h1.3l0.6-3.6
				c0.1-0.6,0-1.1-0.3-1.5C72.6,32.4,72.2,32.2,71.6,32.2z"/>
			<path d="M77.1,32.2c-0.4,0-0.8,0.1-1.1,0.2c-0.4,0.2-0.7,0.3-1,0.6c-0.2,0.2-0.4,0.6-0.4,1v0.2h1.3v-0.2c0.1-0.2,0.2-0.3,0.3-0.5
				c0.2-0.2,0.5-0.2,0.7-0.2c0.2,0,0.5,0.1,0.6,0.2c0.2,0.2,0.2,0.3,0.2,0.6v0.2h-0.8c-0.8,0-1.4,0.2-2,0.5s-0.8,0.8-0.9,1.4
				c0,0.5,0.2,0.9,0.5,1.2c0.3,0.3,0.8,0.5,1.3,0.5c0,0,0,0,0.1,0c0.5,0,0.9-0.2,1.4-0.4c0,0.1,0,0.1,0,0.2V38h1.3v-0.3l0,0
				c-0.1-0.2-0.1-0.3-0.1-0.5v-0.3l0.5-2.6c0.1-0.6-0.1-1-0.5-1.4C78.2,32.4,77.8,32.2,77.1,32.2z M76.1,36.9
				c-0.2,0-0.4-0.1-0.5-0.2c-0.1-0.2-0.2-0.2-0.2-0.5c0-0.2,0.2-0.5,0.4-0.6c0.2-0.2,0.7-0.2,1.2-0.2h0.5l-0.2,0.8
				c-0.2,0.2-0.3,0.4-0.6,0.5C76.6,36.9,76.3,36.9,76.1,36.9z"/>
			<polygon points="85.6,32.3 83.8,32.3 81.8,34.1 81.7,34.2 82.4,30.1 81.1,30.1 79.7,38 81,38 81.4,36.1 81.8,35.7 83.2,38 
				84.6,38 82.8,34.8 			"/>
			<path d="M88.2,32.2c-0.5,0-1,0.1-1.4,0.3c-0.4,0.2-0.7,0.6-1,1c-0.2,0.5-0.5,1-0.5,1.5v0.2c-0.1,0.8,0.1,1.4,0.6,1.9
				c0.4,0.5,1,0.8,1.8,0.8c0,0,0,0,0.1,0c0.5,0,0.9-0.1,1.3-0.3c0.4-0.2,0.7-0.5,1-0.8l0.1-0.2l-0.8-0.6l-0.2,0.2
				c-0.4,0.5-0.9,0.6-1.4,0.6c-0.4,0-0.6-0.2-0.9-0.4c-0.2-0.2-0.2-0.6-0.2-0.9h3.6l0.1-0.6c0-0.2,0-0.5,0-0.6
				c0-0.6-0.2-1.1-0.6-1.5C89.4,32.4,88.9,32.2,88.2,32.2z M86.8,34.5c0.2-0.3,0.3-0.6,0.5-0.8c0.2-0.2,0.6-0.3,0.9-0.3
				s0.5,0.1,0.6,0.3c0.2,0.2,0.2,0.5,0.2,0.8H86.8z"/>
			<path d="M93.7,32.2C93.7,32.2,93.6,32.2,93.7,32.2c-0.6,0-1.1,0.2-1.6,0.5c-0.5,0.3-0.7,0.8-0.7,1.3c0,0.7,0.4,1.2,1.3,1.5l1,0.2
				c0.5,0.2,0.5,0.4,0.5,0.6c0,0.2-0.2,0.3-0.3,0.4c-0.2,0.1-0.5,0.2-0.7,0.2c-0.3,0-0.6-0.1-0.7-0.2c-0.2-0.2-0.2-0.3-0.2-0.6V36
				h-1.3v0.2c0,0.6,0.2,1,0.6,1.4c0.4,0.3,1,0.6,1.6,0.6h0.1c0.4,0,0.7-0.1,1-0.2c0.4-0.2,0.6-0.3,0.9-0.6c0.2-0.2,0.3-0.6,0.4-1
				c0-0.4-0.2-0.8-0.4-1.1c-0.3-0.2-0.7-0.5-1.4-0.6l-0.5-0.1c-0.5-0.2-0.5-0.4-0.5-0.5c0-0.2,0.1-0.3,0.3-0.4
				c0.2-0.2,0.4-0.2,0.7-0.2c0.2,0,0.4,0.1,0.6,0.2c0.2,0.2,0.2,0.3,0.2,0.5v0.2h1.3v-0.2c0-0.6-0.2-1-0.6-1.4
				C94.7,32.4,94.2,32.2,93.7,32.2z"/>
			<polygon points="99,38 100.3,38 101.8,30.1 100.4,30.1 			"/>
			<polygon points="101.8,38 103,38 104.1,32.3 102.8,32.3 			"/>
			<path d="M103.7,30.4c-0.2,0-0.4,0.1-0.5,0.2c-0.2,0.2-0.2,0.3-0.2,0.5c0,0.2,0.1,0.4,0.2,0.6c0.2,0.2,0.3,0.2,0.5,0.2
				c0,0,0,0,0.1,0c0.2,0,0.4-0.1,0.5-0.2c0.2-0.2,0.2-0.3,0.2-0.5c0-0.2-0.1-0.4-0.2-0.6C104.1,30.5,103.8,30.4,103.7,30.4z"/>
			<path d="M107.3,32c0.1-0.2,0.2-0.5,0.3-0.6s0.4-0.2,0.6-0.2c0.2,0,0.3,0,0.5,0.1l0.2,0.1l0.2-1.1H109c-0.2-0.1-0.5-0.1-0.7-0.1
				c-0.6,0-1.1,0.2-1.5,0.5c-0.4,0.3-0.6,0.8-0.7,1.4l-0.1,0.5h-0.8l-0.2,1.1h0.9l-0.8,4.3v0.2h1.3l0.8-4.6h1.1l0.2-1.1h-1.1
				L107.3,32z"/>
			<path d="M111.4,32.2c-0.5,0-1,0.1-1.4,0.3c-0.4,0.2-0.7,0.6-1,1c-0.2,0.5-0.5,1-0.5,1.5v0.2c-0.1,0.8,0.1,1.4,0.6,1.9
				c0.4,0.5,1,0.8,1.8,0.8c0,0,0,0,0.1,0c0.5,0,0.9-0.1,1.3-0.3c0.4-0.2,0.7-0.5,1-0.8l0.1-0.2l-0.8-0.6l-0.2,0.2
				c-0.4,0.5-0.9,0.6-1.4,0.6c-0.4,0-0.6-0.2-0.9-0.4c-0.2-0.2-0.2-0.6-0.2-0.9h3.6l0.1-0.6c0-0.2,0-0.5,0-0.6
				c0-0.6-0.2-1.1-0.6-1.5C112.5,32.4,112,32.2,111.4,32.2z M109.9,34.5c0.2-0.3,0.3-0.6,0.5-0.8l0,0c0.2-0.2,0.5-0.3,0.9-0.3
				c0.3,0,0.5,0.1,0.6,0.3c0.2,0.2,0.2,0.5,0.2,0.8H109.9z"/>
			<path d="M119.6,32.2C119.6,32.2,119.5,32.2,119.6,32.2c-0.6,0-1.1,0.2-1.6,0.5c-0.5,0.3-0.7,0.8-0.7,1.3c0,0.7,0.4,1.2,1.3,1.5
				l1,0.2c0.5,0.2,0.5,0.4,0.5,0.6l0,0c0,0.2-0.2,0.3-0.3,0.4c-0.2,0.1-0.4,0.2-0.7,0.2c-0.3,0-0.6-0.1-0.7-0.2
				c-0.2-0.2-0.2-0.3-0.2-0.6V36h-1.3v0.2c0,0.6,0.2,1,0.6,1.4c0.4,0.3,1,0.6,1.6,0.6h0.1c0.4,0,0.7-0.1,1-0.2
				c0.4-0.2,0.6-0.3,0.9-0.6c0.2-0.2,0.3-0.6,0.4-1c0-0.4-0.2-0.8-0.4-1.1c-0.3-0.2-0.7-0.5-1.4-0.6l-0.5-0.1
				c-0.5-0.2-0.5-0.4-0.5-0.5c0-0.2,0.1-0.3,0.3-0.4c0.2-0.2,0.4-0.2,0.7-0.2c0.2,0,0.4,0.1,0.6,0.2c0.2,0.2,0.2,0.3,0.2,0.5v0.2
				h1.3v-0.2c0-0.6-0.2-1-0.6-1.4C120.6,32.4,120.2,32.2,119.6,32.2z"/>
			<path d="M124,30.4c-0.2,0-0.4,0.1-0.5,0.2c-0.2,0.2-0.2,0.3-0.2,0.5c0,0.2,0.1,0.4,0.2,0.6c0.2,0.2,0.3,0.2,0.5,0.2l0,0
				c0.2,0,0.4-0.1,0.5-0.2c0.2-0.2,0.2-0.3,0.2-0.5c0-0.2-0.1-0.4-0.2-0.6C124.4,30.5,124.2,30.4,124,30.4z"/>
			<polygon points="122.2,38 123.4,38 124.5,32.3 123.1,32.3 			"/>
			<path d="M131.6,32.2c-0.6,0-1.3,0.2-1.8,0.7c-0.1-0.2-0.2-0.3-0.5-0.5c-0.2-0.2-0.6-0.2-1-0.2c-0.5,0-1,0.1-1.4,0.4l0.1-0.3h-1.3
				l-1,5.7h1.4l0.7-4c0.3-0.4,0.6-0.6,1.1-0.6l0,0c0.2,0,0.5,0.1,0.6,0.2c0.2,0.2,0.2,0.4,0.2,0.6l-0.6,3.7h1.4l0.6-3.7
				c0.1-0.3,0.2-0.5,0.5-0.7c0.2-0.2,0.5-0.2,0.8-0.2c0.6,0,0.6,0.2,0.7,0.5c0,0.2,0,0.2,0,0.4l-0.6,3.7h1.3l0.6-3.6
				c0.1-0.6,0-1.1-0.3-1.5C132.6,32.4,132.2,32.2,131.6,32.2z"/>
			<path d="M137.4,32.2c-0.5,0-1,0.1-1.4,0.4l0.1-0.3H135l-1.4,7.7h1.4l0.5-2.3c0.3,0.2,0.8,0.4,1.4,0.4c0.5,0,0.9-0.1,1.3-0.3
				c0.4-0.2,0.7-0.6,1-1l0,0c0.2-0.5,0.4-1,0.5-1.5v-0.1c0-0.2,0-0.4,0-0.6c0-0.6-0.2-1.2-0.5-1.6C138.5,32.5,138.1,32.2,137.4,32.2
				z M137.1,33.4L137.1,33.4c0.3,0,0.6,0.1,0.7,0.3c0.2,0.2,0.2,0.6,0.2,1V35c-0.1,0.6-0.3,1.1-0.6,1.4c-0.3,0.3-0.6,0.5-1,0.5
				c-0.4,0-0.7-0.2-0.9-0.6L136,34C136.3,33.6,136.6,33.4,137.1,33.4z"/>
			<polygon points="139.9,38 141.3,38 142.7,30.1 141.4,30.1 			"/>
			<path d="M147.4,32.8c-0.3-0.4-0.9-0.6-1.4-0.6c0,0,0,0-0.1,0c-0.5,0-0.9,0.1-1.3,0.3c-0.4,0.2-0.7,0.6-1,1
				c-0.2,0.5-0.5,1-0.5,1.5v0.2c-0.1,0.8,0.1,1.4,0.6,1.9c0.4,0.5,1,0.8,1.8,0.8c0,0,0,0,0.1,0c0.5,0,0.9-0.1,1.3-0.3
				c0.4-0.2,0.7-0.5,1-0.8l0.1-0.2l-0.8-0.6l-0.2,0.2c-0.4,0.5-0.9,0.6-1.4,0.6c-0.4,0-0.6-0.2-0.9-0.4c-0.2-0.2-0.2-0.6-0.2-0.9
				h3.6L148,35c0-0.2,0-0.5,0-0.6C147.9,33.8,147.7,33.2,147.4,32.8z M144.5,34.5c0.2-0.3,0.3-0.6,0.5-0.8l0,0
				c0.2-0.2,0.5-0.3,0.8-0.3l0,0c0.3,0,0.5,0.1,0.6,0.3c0.2,0.2,0.2,0.5,0.2,0.8H144.5z"/>
		</g>
	</g>
	<g>
		<path class="st1" d="M16,32c8.8,0,16-7.2,16-16S24.8,0,16,0S0,7.2,0,16S7.2,32,16,32z"/>
		<path class="st2" d="M18.5,0.2c0.1,1,0.1,1.8,0.1,2.8c0,10.3-3.7,19.8-9.8,27.3c2.2,1.1,4.6,1.7,7.2,1.7c8.8,0,16-7.2,16-16
			C32,8,26.2,1.4,18.5,0.2z"/>
		
			<radialGradient id="SVGID_1_" cx="-742.5648" cy="22.1547" r="0.7903" gradientTransform="matrix(20.6758 0 0 20.6758 15369.123 -442.067)" gradientUnits="userSpaceOnUse">
			<stop  offset="0.58" style="stop-color:#EBF7FD"/>
			<stop  offset="0.853" style="stop-color:#C4E3F4"/>
			<stop  offset="0.884" style="stop-color:#C2DFEE"/>
			<stop  offset="0.923" style="stop-color:#BCD3DF"/>
			<stop  offset="0.967" style="stop-color:#B2BEC5"/>
			<stop  offset="0.968" style="stop-color:#B2BEC4"/>
		</radialGradient>
		<path class="st3" d="M16,31.2c8.4,0,15.2-6.8,15.2-15.2S24.4,0.8,16,0.8S0.8,7.6,0.8,16S7.6,31.2,16,31.2z"/>
		
			<linearGradient id="SVGID_2_" gradientUnits="userSpaceOnUse" x1="18.2864" y1="629.1006" x2="26.696" y2="597.7141" gradientTransform="matrix(1 0 0 1 0 -598)">
			<stop  offset="0.1" style="stop-color:#8EC3DE"/>
			<stop  offset="0.206" style="stop-color:#A7D1E6"/>
			<stop  offset="0.361" style="stop-color:#C5E2F0"/>
			<stop  offset="0.513" style="stop-color:#DAEDF7"/>
			<stop  offset="0.661" style="stop-color:#E7F5FC"/>
			<stop  offset="0.8" style="stop-color:#EBF7FD"/>
			<stop  offset="0.845" style="stop-color:#E5F2F8"/>
			<stop  offset="0.902" style="stop-color:#D6E3EA"/>
			<stop  offset="0.966" style="stop-color:#BCCAD2"/>
			<stop  offset="0.981" style="stop-color:#B4C3CB"/>
		</linearGradient>
		<path class="st4" d="M18.5,1c0,0.6,0.1,1.4,0.1,2c0,10.1-3.4,19.4-9.3,26.6c2,1,4.3,1.6,6.7,1.6c8.4,0,15.2-6.8,15.2-15.2
			C31.2,8.5,25.8,2.2,18.5,1z"/>
		<path class="st0" d="M24,10.6h3.1c0,0,0.3-0.7-0.2-2.2c-0.6-1.5-1.4-2.2-1.6-2.6c-0.7-1-2.4-1.9-2.6-2.1c0,0,0.7,0.6,1.2,1.6
			C24.4,6.8,24.9,9,24,10.6z"/>
		<path class="st0" d="M10,10.1c0,0-1.4,0.9-2.6,3.9c-1.2,3.1-1.4,6-1,7c0,0-1.4-1-1.8-3.5C4.3,14.9,5.7,12.2,10,10.1z"/>
		<path class="st5" d="M21.2,20.3l-0.7-1c-2,1.4-3.5,2.3-4.6,2.8c-0.8,0.3-1.4,0.5-2.1,0.5c-0.6,0-1.2-0.2-1.5-0.7
			c-0.3-0.4-0.5-1.2-0.5-2.3c0-0.7,0.1-1.5,0.2-2.4c3-1.3,4.9-2.2,5.8-2.6c1.8-1,3-2,3.8-3s1.1-1.9,1.1-3c0-1-0.2-1.7-0.8-2.2
			c-0.5-0.4-1.3-0.7-2.4-0.7c-3.1-0.1-5.8,1.8-8.2,5.4c-2.1,3.2-3.1,6.5-3.2,9.8c0,1.6,0.2,2.8,0.8,3.6c0.6,0.7,1.4,1.1,2.5,1.2
			C14.1,25.5,17.4,23.8,21.2,20.3z M18.2,12.3c-1.3,1.3-3.2,2.4-5.7,3.4c0.3-1.8,0.9-3.4,1.6-5.1c0.5-1.1,1.1-2,1.9-2.6
			c0.6-0.4,1.1-0.6,1.7-0.6s1,0.2,1.4,0.6c0.3,0.4,0.5,1,0.5,1.6C19.4,10.6,19,11.4,18.2,12.3z"/>
	</g>
</g>
</svg>
