<?xml version="1.0" encoding="utf-8"?>
<!-- Generator: Adobe Illustrator 24.3.0, SVG Export Plug-In . SVG Version: 6.00 Build 0)  -->
<svg version="1.1" id="Layer_1" xmlns="http://www.w3.org/2000/svg" xmlns:xlink="http://www.w3.org/1999/xlink" x="0px" y="0px"
	 viewBox="0 0 180 50" style="enable-background:new 0 0 180 50;" xml:space="preserve">
<style type="text/css">
	.st0{fill-rule:evenodd;clip-rule:evenodd;fill:#0094DA;}
	.st1{fill:#A3DBF3;}
	.st2{fill-rule:evenodd;clip-rule:evenodd;fill:#85D1F0;}
	.st3{fill:url(#SVGID_1_);}
	.st4{fill-rule:evenodd;clip-rule:evenodd;fill:url(#SVGID_2_);}
	.st5{fill-rule:evenodd;clip-rule:evenodd;fill:#1F2F4F;}
</style>
<g>
	<path class="st0" d="M67.8,10.6c0-2.7-2.1-5.6-7.6-5.6c-6,0-9.8,5.5-9.8,11c0,5.8,4.1,10,9.6,10c6.9,0,8.3-5,8.3-5l-0.2-0.2
		c0,0-3.1,2.3-6.5,2.3c-4.2,0-6.5-3.2-6.5-8l0.2-0.1c0,0,2.1,1.1,4.5,1.1C63.5,15.9,67.8,14.5,67.8,10.6z M62.9,10.5
		c0,2.4-2,3.4-3.9,3.4c-1.7,0-3.8-0.6-3.8-0.9c0-1.5,1.6-6.3,4.5-6.3C62,6.7,62.9,8.7,62.9,10.5z"/>
	<path class="st0" d="M72.6,22.9c-0.4,0.5-0.5,1.2-0.5,1.6c0,0.3,0,0.6,0,0.7c0,0,0,0,0,0h7.7c6.8,0,9.3,0.3,9.3,0.3
		c-0.3-2.3-0.3-3-3.2-3c-2.9,0-6.5,0-8.2,0.6L77.7,23c2.3-3.5,6-9.4,10-15c0.5-0.7,0.6-1.5,0.6-2V5.5h-7.6c-6.5,0-8.6-0.5-8.6-0.5
		c0.2,1.5,0.3,3,1.9,3c2.5,0,6.2,0,8.4-0.4l0.1,0.2C80.9,10.9,74.6,20.2,72.6,22.9z"/>
	<path class="st0" d="M95.1,30.8c2.4,0,4.4-1,5.8-3.9l0.7-1.5c-1.4-0.3-3-1.1-3.6-3c-1.2-3.6-3.7-11.2-5.2-14.3
		c-0.4-0.8-0.9-1.7-1.6-2.4V5.5c0.8-0.2,1.6-0.3,3.1-0.3c1.4,0,2.8,0.4,3.2,1.7c0.9,3.4,3.6,11,5.4,15.4c5.7-15.7,3.5-17.1,7.1-17.1
		c1.3,0,1.9,0.3,1.9,0.3v0.2c0,0-1.1,0.7-2.1,3.6l-6.1,16.5c-2.2,6-5.6,8.5-9,8.5c-2.8,0-2.5-1.5-2.6-3.9
		C93.1,30.6,94.1,30.8,95.1,30.8z"/>
	<path class="st0" d="M115.5,5.5c0.8,2.1,0.9,6.6,0.9,10.3c0,7.9-0.1,11.8-0.1,15.6c0,2.4,1,3,2.5,3c0.9,0,1.9-0.2,2.9-0.4
		c0,0-0.7-2.1-0.7-6.6c0-0.6,0-1.2,0-1.9c0.7,0.1,1.3,0.2,2.1,0.2c8.2,0,12.1-5,12.1-11.8c0-5-2.9-9-7.6-9c-5,0-6.6,3.1-6.6,3.1
		l-0.2-0.1c0-0.2,0.1-0.4,0.1-0.7c0-1.2-1.4-2.2-3.3-2.2C116.9,5.1,116.2,5.3,115.5,5.5z M130.3,14.8c0,4.5-2.1,9-6.6,9
		c-1.5,0-2.8-0.2-2.8-1.3v-4.9c0-1.9,0-3.7,0.2-5.4c0.4-3,2.2-4.8,4.7-4.8C128.7,7.4,130.3,11.2,130.3,14.8z"/>
	<path class="st0" d="M150.5,12.7V13c-4.5,0.1-11.2,1.8-11.2,7.5c0,2.9,2,5.3,5.5,5.3c2.6,0,4.6-1.4,5.6-3l0.2,0.1
		c0,2.1,1.8,2.8,3.5,2.8c3.5,0,4.6-2.4,4.6-2.4l-0.2-0.1c0,0-0.7,0.6-1.6,0.6c-2,0-2.1-2.8-2.1-4.4v-0.5c0-2.2,0.1-4.8,0.1-6.9
		c0-3.6-0.8-7-6.6-7c-3.6,0-7,2.4-7.6,4.8l0.2,0.2c1.5-1.3,3.7-2.4,5.7-2.4C149.7,7.5,150.5,9.4,150.5,12.7z M150.4,20.3
		c0,1.5-2.3,2.7-3.7,2.7c-1.4,0-2.8-0.9-2.8-3.2c0-4.2,4.9-4.9,6.5-5.2C150.5,16.6,150.4,18.7,150.4,20.3z"/>
	<path class="st0" d="M163.3,30.8c2.4,0,4.4-1,5.8-3.9l0.7-1.5c-1.4-0.3-3-1.1-3.6-3c-1.2-3.6-3.7-11.2-5.2-14.3
		c-0.4-0.8-0.9-1.7-1.6-2.4V5.5c0.8-0.2,1.6-0.3,3.1-0.3c1.4,0,2.8,0.4,3.2,1.7c0.9,3.4,3.6,11,5.4,15.4c5.7-15.7,3.5-17.1,7.1-17.1
		c1.3,0,1.9,0.3,1.9,0.3v0.2c0,0-1.1,0.7-2.1,3.6l-6.1,16.5c-2.2,6-5.6,8.5-9,8.5c-2.8,0-2.5-1.5-2.6-3.9
		C161.2,30.6,162.3,30.8,163.3,30.8z"/>
</g>
<g>
	<path d="M84.6,40.3c-0.8,0-1.6,0.3-2.2,0.9c-0.1-0.2-0.3-0.4-0.6-0.6c-0.3-0.2-0.8-0.3-1.2-0.3c-0.6,0-1.2,0.1-1.7,0.5l0.1-0.4
		l-1.6,0l-1.3,7.1h1.7l0.9-5c0.4-0.5,0.9-0.8,1.5-0.8c0.3,0,0.6,0.1,0.7,0.3c0.2,0.2,0.2,0.5,0.2,0.8l-0.8,4.6h1.7l0.8-4.6
		c0.1-0.4,0.3-0.6,0.6-0.9c0.3-0.2,0.6-0.3,1-0.3c0.7,0,0.8,0.3,0.9,0.6c0,0.2,0,0.3,0,0.5l-0.8,4.6h1.6l0.8-4.5
		c0.1-0.8,0-1.4-0.4-1.9C85.9,40.5,85.3,40.3,84.6,40.3z"/>
	<path d="M91.5,40.3c-0.5,0-1,0.1-1.4,0.2c-0.5,0.2-0.9,0.4-1.2,0.8c-0.3,0.3-0.5,0.7-0.5,1.2l0,0.3l1.6,0l0-0.2
		c0.1-0.2,0.2-0.4,0.4-0.6c0.3-0.2,0.6-0.2,0.9-0.2c0.3,0,0.6,0.1,0.7,0.3c0.2,0.2,0.2,0.4,0.2,0.7l0,0.3l-1,0c-1,0-1.8,0.2-2.5,0.6
		c-0.7,0.4-1,1-1.1,1.8c0,0.6,0.2,1.1,0.6,1.5c0.4,0.4,1,0.6,1.6,0.6c0,0,0,0,0.1,0c0.6,0,1.1-0.2,1.7-0.5c0,0.1,0,0.1,0,0.2v0.2
		h1.6l0-0.4l0,0c-0.1-0.2-0.1-0.4-0.1-0.6l0-0.4l0.6-3.3c0.1-0.7-0.1-1.3-0.6-1.8C92.9,40.5,92.3,40.3,91.5,40.3z M90.2,46.1
		c-0.3,0-0.5-0.1-0.6-0.2c-0.1-0.2-0.2-0.3-0.2-0.6c0-0.3,0.2-0.6,0.5-0.7c0.3-0.2,0.9-0.3,1.5-0.3l0.6,0l-0.2,1
		c-0.2,0.3-0.4,0.5-0.7,0.6C90.8,46.1,90.5,46.1,90.2,46.1z"/>
	<polygon points="102.1,40.4 99.9,40.4 97.4,42.6 97.2,42.7 98.1,37.6 96.5,37.6 94.7,47.5 96.4,47.5 96.8,45.1 97.4,44.6 
		99.1,47.5 100.9,47.5 98.6,43.5 	"/>
	<path d="M105.4,40.3c-0.6,0-1.2,0.1-1.7,0.4c-0.5,0.3-0.9,0.7-1.3,1.3c-0.3,0.6-0.6,1.2-0.6,1.9l0,0.3c-0.1,1,0.1,1.8,0.7,2.4
		c0.5,0.6,1.3,1,2.2,1c0,0,0,0,0.1,0c0.6,0,1.1-0.1,1.6-0.4c0.5-0.2,0.9-0.6,1.2-1l0.1-0.2l-1-0.8l-0.2,0.2
		c-0.5,0.6-1.1,0.8-1.7,0.8c-0.5,0-0.8-0.2-1.1-0.5c-0.2-0.3-0.3-0.7-0.3-1.1h4.5l0.1-0.7c0-0.3,0-0.6,0-0.8c0-0.8-0.3-1.4-0.7-1.9
		C106.8,40.5,106.2,40.3,105.4,40.3z M103.6,43.1c0.2-0.4,0.4-0.8,0.6-1c0.3-0.3,0.7-0.4,1.1-0.4c0.4,0,0.6,0.1,0.8,0.4
		c0.2,0.3,0.3,0.6,0.2,1L103.6,43.1z"/>
	<path d="M112.2,40.3C112.2,40.3,112.1,40.3,112.2,40.3c-0.8,0-1.4,0.2-2,0.6c-0.6,0.4-0.9,1-0.9,1.6c0,0.9,0.5,1.5,1.6,1.9l1.2,0.3
		c0.6,0.2,0.6,0.5,0.6,0.7c0,0.2-0.2,0.4-0.4,0.5c-0.3,0.1-0.6,0.2-0.9,0.2c-0.4,0-0.7-0.1-0.9-0.3c-0.2-0.2-0.3-0.4-0.3-0.7V45
		l-1.6,0l0,0.2c0,0.7,0.2,1.3,0.8,1.7c0.5,0.4,1.2,0.7,2,0.7c0,0,0.1,0,0.1,0c0.5,0,0.9-0.1,1.3-0.2c0.5-0.2,0.8-0.4,1.1-0.8
		c0.3-0.3,0.4-0.8,0.5-1.2c0-0.5-0.2-1-0.5-1.4c-0.4-0.3-0.9-0.6-1.8-0.8l-0.6-0.1c-0.6-0.2-0.6-0.5-0.6-0.6c0-0.2,0.1-0.4,0.4-0.5
		c0.2-0.2,0.5-0.2,0.9-0.2c0.3,0,0.5,0.1,0.7,0.3c0.2,0.2,0.2,0.4,0.2,0.6l0,0.3l1.6,0l0-0.2c0-0.7-0.2-1.2-0.7-1.7
		C113.5,40.5,112.9,40.3,112.2,40.3z"/>
	<polygon points="118.9,47.5 120.5,47.5 122.3,37.6 120.6,37.6 	"/>
	<polygon points="122.3,47.5 123.9,47.5 125.2,40.4 123.6,40.4 	"/>
	<path d="M124.7,38c-0.3,0-0.5,0.1-0.6,0.3c-0.2,0.2-0.3,0.4-0.3,0.6c0,0.3,0.1,0.5,0.3,0.7c0.2,0.2,0.4,0.2,0.6,0.2c0,0,0,0,0.1,0
		c0.3,0,0.5-0.1,0.6-0.3c0.2-0.2,0.3-0.4,0.3-0.6c0-0.3-0.1-0.5-0.3-0.7C125.2,38.1,124.9,38,124.7,38z"/>
	<path d="M129.2,40c0.1-0.3,0.2-0.6,0.4-0.8c0.2-0.2,0.5-0.3,0.8-0.3c0.2,0,0.4,0,0.6,0.1l0.3,0.1l0.2-1.4l-0.2,0
		c-0.3-0.1-0.6-0.1-0.9-0.1c-0.7,0-1.4,0.2-1.9,0.6c-0.5,0.4-0.8,1-0.9,1.7l-0.1,0.6h-1l-0.3,1.4h1.1l-1,5.4l0,0.3h1.6l1-5.7h1.4
		l0.2-1.4h-1.4L129.2,40z"/>
	<path d="M134.3,40.3c-0.6,0-1.2,0.1-1.7,0.4c-0.5,0.3-0.9,0.7-1.3,1.3c-0.3,0.6-0.6,1.2-0.6,1.9l0,0.3c-0.1,1,0.1,1.8,0.7,2.4
		c0.5,0.6,1.3,1,2.2,1c0,0,0,0,0.1,0c0.6,0,1.1-0.1,1.6-0.4c0.5-0.2,0.9-0.6,1.2-1l0.1-0.2l-1-0.8l-0.2,0.2
		c-0.5,0.6-1.1,0.8-1.7,0.8c-0.5,0-0.8-0.2-1.1-0.5c-0.2-0.3-0.3-0.7-0.3-1.1h4.5l0.1-0.7c0-0.3,0-0.6,0-0.8c0-0.8-0.3-1.4-0.7-1.9
		C135.7,40.5,135.1,40.3,134.3,40.3z M132.5,43.1c0.2-0.4,0.4-0.8,0.6-1v0c0.3-0.3,0.6-0.4,1.1-0.4c0.4,0,0.6,0.1,0.8,0.4
		c0.2,0.3,0.3,0.6,0.2,1L132.5,43.1z"/>
	<path d="M144.6,40.3C144.6,40.3,144.5,40.3,144.6,40.3c-0.8,0-1.4,0.2-2,0.6c-0.6,0.4-0.9,1-0.9,1.6c0,0.9,0.5,1.5,1.6,1.9l1.2,0.3
		c0.6,0.2,0.6,0.5,0.6,0.7l0,0c0,0.2-0.2,0.4-0.4,0.5c-0.3,0.1-0.5,0.2-0.9,0.2c-0.4,0-0.7-0.1-0.9-0.3c-0.2-0.2-0.3-0.4-0.3-0.7V45
		l-1.6,0l0,0.2c0,0.7,0.2,1.3,0.8,1.7c0.5,0.4,1.2,0.7,2,0.7c0,0,0.1,0,0.1,0c0.5,0,0.9-0.1,1.3-0.2c0.5-0.2,0.8-0.4,1.1-0.8
		c0.3-0.3,0.4-0.8,0.5-1.2c0-0.5-0.2-1-0.5-1.4c-0.4-0.3-0.9-0.6-1.8-0.8l-0.6-0.1c-0.6-0.2-0.6-0.5-0.6-0.6c0-0.2,0.1-0.4,0.4-0.5
		c0.2-0.2,0.5-0.2,0.9-0.2c0.3,0,0.5,0.1,0.7,0.3c0.2,0.2,0.2,0.4,0.2,0.6l0,0.3l1.6,0l0-0.2c0-0.7-0.2-1.2-0.7-1.7
		C145.9,40.5,145.3,40.3,144.6,40.3z"/>
	<path d="M150.1,38c-0.3,0-0.5,0.1-0.6,0.3c-0.2,0.2-0.3,0.4-0.3,0.6c0,0.3,0.1,0.5,0.3,0.7c0.2,0.2,0.4,0.2,0.6,0.2c0,0,0,0,0,0
		c0.3,0,0.5-0.1,0.6-0.3c0.2-0.2,0.3-0.4,0.3-0.6c0-0.3-0.1-0.5-0.3-0.7C150.6,38.1,150.4,38,150.1,38z"/>
	<polygon points="147.8,47.5 149.4,47.5 150.7,40.4 149,40.4 	"/>
	<path d="M159.6,40.3c-0.8,0-1.6,0.3-2.2,0.9c-0.1-0.2-0.3-0.4-0.6-0.6c-0.3-0.2-0.8-0.3-1.2-0.3c-0.6,0-1.2,0.1-1.7,0.5l0.1-0.4
		l-1.6,0l-1.3,7.1h1.7l0.9-5c0.4-0.5,0.8-0.8,1.4-0.8c0,0,0,0,0,0c0.3,0,0.6,0.1,0.7,0.3c0.2,0.2,0.2,0.5,0.2,0.8l-0.8,4.6h1.7
		l0.8-4.6c0.1-0.4,0.3-0.6,0.6-0.9c0.3-0.2,0.6-0.3,1-0.3c0.7,0,0.8,0.3,0.9,0.6c0,0.2,0,0.3,0,0.5l-0.8,4.6h1.6l0.8-4.5
		c0.1-0.8,0-1.4-0.4-1.9C160.9,40.5,160.4,40.3,159.6,40.3z"/>
	<path d="M166.9,40.3c-0.6,0-1.2,0.1-1.7,0.5l0.1-0.4l-1.5,0L162,50h1.7l0.6-2.9c0.4,0.3,1,0.5,1.7,0.5c0.6,0,1.1-0.1,1.6-0.4
		c0.5-0.3,0.9-0.7,1.2-1.3h0c0.3-0.6,0.5-1.2,0.6-1.9l0-0.1c0-0.3,0-0.5,0-0.8c0-0.8-0.2-1.5-0.6-2
		C168.2,40.6,167.7,40.3,166.9,40.3z M166.5,41.7C166.5,41.7,166.5,41.7,166.5,41.7c0.4,0,0.7,0.1,0.9,0.4c0.2,0.3,0.3,0.7,0.3,1.2
		l0,0.5c-0.1,0.8-0.4,1.4-0.7,1.8c-0.4,0.4-0.8,0.6-1.3,0.6c-0.5,0-0.9-0.2-1.1-0.7l0.5-3C165.5,42,165.9,41.7,166.5,41.7z"/>
	<polygon points="170,47.5 171.7,47.5 173.5,37.6 171.8,37.6 	"/>
	<path d="M179.3,41c-0.4-0.5-1.1-0.7-1.8-0.8c0,0,0,0-0.1,0c-0.6,0-1.1,0.1-1.6,0.4c-0.5,0.3-0.9,0.7-1.3,1.3
		c-0.3,0.6-0.6,1.2-0.6,1.9l0,0.3c-0.1,1,0.1,1.8,0.7,2.4c0.5,0.6,1.3,1,2.2,1c0,0,0,0,0.1,0c0.6,0,1.1-0.1,1.6-0.4
		c0.5-0.2,0.9-0.6,1.2-1l0.1-0.2l-1-0.8l-0.2,0.2c-0.5,0.6-1.1,0.8-1.7,0.8c-0.5,0-0.8-0.2-1.1-0.5c-0.2-0.3-0.3-0.7-0.3-1.1h4.5
		l0.1-0.7c0-0.3,0-0.6,0-0.8C180,42.2,179.7,41.5,179.3,41z M175.7,43.1c0.2-0.4,0.4-0.8,0.6-1v0c0.3-0.3,0.6-0.4,1-0.4c0,0,0,0,0,0
		c0.4,0,0.6,0.1,0.8,0.4c0.2,0.3,0.3,0.6,0.2,1L175.7,43.1z"/>
</g>
<g>
	<path class="st1" d="M20,40c11,0,20-9,20-20C40,9,31,0,20,0C9,0,0,9,0,20C0,31,9,40,20,40z"/>
	<path class="st2" d="M23.1,0.2c0.1,1.2,0.1,2.3,0.1,3.5c0,12.9-4.6,24.8-12.2,34.1c2.7,1.4,5.8,2.1,9,2.1c11,0,20-9,20-20
		C40,10,32.7,1.7,23.1,0.2z"/>
	
		<radialGradient id="SVGID_1_" cx="-361.7473" cy="335.7847" r="0.9089" gradientTransform="matrix(22.4737 0 0 -22.4737 8149.7988 7566.3247)" gradientUnits="userSpaceOnUse">
		<stop  offset="0.58" style="stop-color:#EBF7FD"/>
		<stop  offset="0.853" style="stop-color:#C4E3F4"/>
		<stop  offset="0.884" style="stop-color:#C2DFEE"/>
		<stop  offset="0.923" style="stop-color:#BCD3DF"/>
		<stop  offset="0.967" style="stop-color:#B2BEC5"/>
		<stop  offset="0.968" style="stop-color:#B2BEC4"/>
	</radialGradient>
	<path class="st3" d="M20,39c10.5,0,19-8.5,19-19S30.5,1,20,1S1,9.5,1,20S9.5,39,20,39z"/>
	
		<linearGradient id="SVGID_2_" gradientUnits="userSpaceOnUse" x1="22.8812" y1="11.1181" x2="33.3931" y2="50.3512" gradientTransform="matrix(1 0 0 -1 0 50)">
		<stop  offset="0.1" style="stop-color:#8EC3DE"/>
		<stop  offset="0.206" style="stop-color:#A7D1E6"/>
		<stop  offset="0.361" style="stop-color:#C5E2F0"/>
		<stop  offset="0.513" style="stop-color:#DAEDF7"/>
		<stop  offset="0.661" style="stop-color:#E7F5FC"/>
		<stop  offset="0.8" style="stop-color:#EBF7FD"/>
		<stop  offset="0.845" style="stop-color:#E5F2F8"/>
		<stop  offset="0.902" style="stop-color:#D6E3EA"/>
		<stop  offset="0.966" style="stop-color:#BCCAD2"/>
		<stop  offset="0.981" style="stop-color:#B4C3CB"/>
	</linearGradient>
	<path class="st4" d="M23.1,1.2c0,0.8,0.1,1.7,0.1,2.5c0,12.6-4.3,24.2-11.6,33.3c2.5,1.2,5.4,2,8.4,2c10.5,0,19-8.5,19-19
		C39,10.6,32.2,2.7,23.1,1.2z"/>
	<path class="st0" d="M30,13.3h3.9c0,0,0.4-0.9-0.3-2.8c-0.8-1.9-1.7-2.8-2-3.3c-0.9-1.2-3-2.4-3.3-2.6c0,0,0.9,0.7,1.5,2
		C30.5,8.5,31.1,11.3,30,13.3z"/>
	<path class="st0" d="M12.5,12.6c0,0-1.8,1.1-3.2,4.9C7.8,21.4,7.6,25,8,26.3c0,0-1.7-1.2-2.2-4.4C5.4,18.6,7.1,15.3,12.5,12.6z"/>
	<path class="st5" d="M26.5,25.4l-0.9-1.3c-2.5,1.8-4.4,2.9-5.7,3.5c-1,0.4-1.8,0.6-2.6,0.6c-0.8,0-1.5-0.3-1.9-0.9
		c-0.4-0.5-0.6-1.5-0.6-2.9c0-0.9,0.1-1.9,0.3-3c3.7-1.6,6.1-2.7,7.2-3.3c2.3-1.3,3.8-2.5,4.7-3.7c0.9-1.2,1.4-2.4,1.4-3.7
		c0-1.2-0.3-2.1-1-2.8C26.8,7.4,25.8,7,24.4,7c-3.9-0.1-7.3,2.2-10.2,6.7c-2.6,4-3.9,8.1-4,12.2c0,2,0.3,3.5,1,4.5
		c0.7,0.9,1.7,1.4,3.1,1.5C17.6,31.9,21.7,29.8,26.5,25.4z M22.7,15.4c-1.6,1.6-4,3-7.1,4.3c0.4-2.2,1.1-4.3,2-6.4
		c0.6-1.4,1.4-2.5,2.4-3.2c0.7-0.5,1.4-0.8,2.1-0.8c0.7,0,1.3,0.3,1.7,0.8c0.4,0.5,0.6,1.2,0.6,2C24.3,13.2,23.7,14.3,22.7,15.4z"/>
</g>
</svg>
