<?xml version="1.0" encoding="utf-8"?>
<!-- Generator: Adobe Illustrator 24.3.0, SVG Export Plug-In . SVG Version: 6.00 Build 0)  -->
<svg version="1.1" id="Layer_1" xmlns="http://www.w3.org/2000/svg" xmlns:xlink="http://www.w3.org/1999/xlink" x="0px" y="0px"
	 viewBox="0 0 16 16" style="enable-background:new 0 0 16 16;" xml:space="preserve">
<style type="text/css">
	.st0{fill:#0094DA;}
</style>
<g>
	<path class="st0" d="M12.5,16h-9C2.7,16,2,15.3,2,14.5v-7C2,6.7,2.7,6,3.5,6h9C13.3,6,14,6.7,14,7.5v7C14,15.3,13.3,16,12.5,16z
		 M3.5,7C3.2,7,3,7.2,3,7.5v7C3,14.8,3.2,15,3.5,15h9c0.3,0,0.5-0.2,0.5-0.5v-7C13,7.2,12.8,7,12.5,7H3.5z"/>
	<path class="st0" d="M11.5,7C11.2,7,11,6.8,11,6.5V4c0-1.7-1.3-3-3-3S5,2.3,5,4v2.5C5,6.8,4.8,7,4.5,7S4,6.8,4,6.5V4
		c0-2.2,1.8-4,4-4s4,1.8,4,4v2.5C12,6.8,11.8,7,11.5,7z"/>
	<path class="st0" d="M8,11.3c-0.7,0-1.3-0.6-1.3-1.3c0-0.7,0.6-1.3,1.3-1.3S9.3,9.3,9.3,10C9.3,10.7,8.7,11.3,8,11.3z M8,9.7
		c-0.2,0-0.3,0.1-0.3,0.3c0,0.2,0.2,0.3,0.3,0.3c0.2,0,0.3-0.1,0.3-0.3C8.3,9.8,8.2,9.7,8,9.7z"/>
	<path class="st0" d="M8,13.3c-0.3,0-0.5-0.2-0.5-0.5V11c0-0.3,0.2-0.5,0.5-0.5s0.5,0.2,0.5,0.5v1.8C8.5,13.1,8.3,13.3,8,13.3z"/>
</g>
</svg>
