<?xml version="1.0" encoding="utf-8"?>
<!-- Generator: Adobe Illustrator 24.3.0, SVG Export Plug-In . SVG Version: 6.00 Build 0)  -->
<svg version="1.1" id="Layer_1" xmlns="http://www.w3.org/2000/svg" xmlns:xlink="http://www.w3.org/1999/xlink" x="0px" y="0px"
	 viewBox="0 0 16 16" style="enable-background:new 0 0 16 16;" xml:space="preserve">
<style type="text/css">
	.st0{fill:#0094DA;}
</style>
<g>
	<path class="st0" d="M11.5,16c-0.5,0-1-0.1-1.5-0.3C7.8,14.9,5.7,13.6,4,12S1.1,8.2,0.3,6C0,5.3-0.1,4.6,0,3.9
		c0.1-0.7,0.4-1.4,0.8-1.9c0.4-0.6,0.9-1.1,1.6-1.4C3,0.2,3.8,0,4.5,0C4.7,0,5,0.2,5,0.4l0.8,3.7c0,0.2,0,0.3-0.1,0.5L4.3,5.9
		c1.3,2.5,3.3,4.6,5.8,5.8l1.3-1.3c0.1-0.1,0.3-0.2,0.5-0.1l3.7,0.8c0.2,0,0.4,0.3,0.4,0.5c0,0.8-0.2,1.5-0.5,2.1
		c-0.3,0.6-0.8,1.2-1.4,1.6c-0.6,0.4-1.2,0.7-1.9,0.8C11.9,16,11.7,16,11.5,16z M4.1,1c-1,0.1-1.9,0.6-2.5,1.5
		C1,3.4,0.8,4.6,1.2,5.7c1.5,4.2,4.9,7.6,9.1,9.1c1.1,0.4,2.2,0.2,3.2-0.4c0.8-0.6,1.4-1.5,1.5-2.5l-3-0.6l-1.4,1.4
		c-0.1,0.1-0.4,0.2-0.6,0.1c-3-1.4-5.4-3.8-6.8-6.8C3.2,5.8,3.2,5.6,3.4,5.4L4.8,4L4.1,1z"/>
	<path class="st0" d="M15.5,8.5C15.2,8.5,15,8.3,15,8c0-3.9-3.1-7-7-7C7.7,1,7.5,0.8,7.5,0.5S7.7,0,8,0c2.1,0,4.1,0.8,5.7,2.3
		C15.2,3.9,16,5.9,16,8C16,8.3,15.8,8.5,15.5,8.5z"/>
	<path class="st0" d="M13.5,8.5C13.2,8.5,13,8.3,13,8c0-2.8-2.2-5-5-5C7.7,3,7.5,2.8,7.5,2.5C7.5,2.2,7.7,2,8,2c3.3,0,6,2.7,6,6
		C14,8.3,13.8,8.5,13.5,8.5z"/>
	<path class="st0" d="M11.5,8.5C11.2,8.5,11,8.3,11,8c0-1.7-1.3-3-3-3C7.7,5,7.5,4.8,7.5,4.5C7.5,4.2,7.7,4,8,4c2.2,0,4,1.8,4,4
		C12,8.3,11.8,8.5,11.5,8.5z"/>
</g>
</svg>
