<?xml version="1.0" encoding="utf-8"?>
<!-- Generator: Adobe Illustrator 24.3.0, SVG Export Plug-In . SVG Version: 6.00 Build 0)  -->
<svg version="1.1" id="Layer_1" xmlns="http://www.w3.org/2000/svg" xmlns:xlink="http://www.w3.org/1999/xlink" x="0px" y="0px"
	 viewBox="0 0 16 16" style="enable-background:new 0 0 16 16;" xml:space="preserve">
<style type="text/css">
	.st0{fill:#0094DA;}
</style>
<path class="st0" d="M14.6,1.9H1.4C0.6,1.9,0,2.5,0,3.3v9.4c0,0.8,0.6,1.4,1.4,1.4h13.2c0.8,0,1.4-0.6,1.4-1.4V3.3
	C16,2.5,15.4,1.9,14.6,1.9z M14.4,2.8L8,9.2L1.6,2.8H14.4z M0.9,12.5v-9L5.5,8L0.9,12.5z M1.6,13.2l4.5-4.5l1.6,1.6
	c0.2,0.2,0.5,0.2,0.7,0l1.5-1.5l4.5,4.5H1.6z M15.1,12.5L10.6,8l4.5-4.5V12.5z"/>
</svg>
