<?xml version="1.0" encoding="utf-8"?>
<!-- Generator: Adobe Illustrator 24.3.0, SVG Export Plug-In . SVG Version: 6.00 Build 0)  -->
<svg version="1.1" id="Layer_1" xmlns="http://www.w3.org/2000/svg" xmlns:xlink="http://www.w3.org/1999/xlink" x="0px" y="0px"
	 viewBox="0 0 16 16" style="enable-background:new 0 0 16 16;" xml:space="preserve">
<style type="text/css">
	.st0{fill:#212121;}
</style>
<g>
	<path class="st0" d="M12.5,7.2c0.1,0,0.3,0.1,0.3,0.3v7c0,0.1-0.1,0.3-0.3,0.3h-9c-0.1,0-0.3-0.1-0.3-0.3v-7c0-0.1,0.1-0.3,0.3-0.3
		H12.5 M12.5,6h-9C2.7,6,2,6.7,2,7.5v7C2,15.3,2.7,16,3.5,16h9c0.8,0,1.5-0.7,1.5-1.5v-7C14,6.7,13.3,6,12.5,6L12.5,6z"/>
	<g>
		<path class="st0" d="M8,9.5c0.3,0,0.5,0.3,0.5,0.5S8.3,10.5,8,10.5S7.5,10.3,7.5,10S7.7,9.5,8,9.5 M8,8.2C7,8.2,6.2,9,6.2,10
			c0,1,0.8,1.8,1.8,1.8c1,0,1.8-0.8,1.8-1.8C9.8,9,9,8.2,8,8.2L8,8.2z"/>
		<path class="st0" d="M7.4,11.1v2.1c0,0.4,0.2,0.6,0.6,0.6s0.6-0.2,0.6-0.6v-2.1H7.4z"/>
	</g>
	<path class="st0" d="M5.2,6.6V4c0-1.5,1.2-2.8,2.8-2.8s2.8,1.2,2.8,2.8v2.6H12V4c0-2.2-1.8-4-4-4S4,1.8,4,4v2.6H5.2z"/>
</g>
</svg>
