<?xml version="1.0" encoding="utf-8"?>
<!-- Generator: Adobe Illustrator 24.3.0, SVG Export Plug-In . SVG Version: 6.00 Build 0)  -->
<svg version="1.1" id="Capa_1" xmlns="http://www.w3.org/2000/svg" xmlns:xlink="http://www.w3.org/1999/xlink" x="0px" y="0px"
	 viewBox="0 0 24 24" style="enable-background:new 0 0 24 24;" xml:space="preserve">
<style type="text/css">
	.st0{fill:#25AFE5;}
</style>
<g>
	<path class="st0" d="M4,17.5l1.3-0.9c0.3-0.2,0.2-0.7-0.1-0.8L0.5,14c-0.3-0.1-0.6,0.1-0.6,0.4l0.2,5c0,0.4,0.4,0.6,0.7,0.4
		l1.3-0.9L4,17.5z"/>
	<path class="st0" d="M1.5,11.9C1.5,6.2,6.2,1.4,12,1.4c4.1,0,7.6,2.4,9.4,5.8c0.4-0.3,0.9-0.5,1.3-0.7c-2-3.9-6-6.6-10.7-6.6
		C5.4-0.1,0.1,5.2,0,11.6l1.5,0.6C1.5,12.1,1.5,12,1.5,11.9z"/>
	<path class="st0" d="M19.9,6.4l-1.3,0.9c-0.3,0.2-0.2,0.7,0.1,0.8l4.6,1.8C23.7,10,24,9.7,24,9.4l-0.2-5c0-0.4-0.4-0.6-0.7-0.4
		l-1.3,0.9L19.9,6.4z"/>
	<path class="st0" d="M22.4,11.7c0,0.1,0,0.2,0,0.3c0,5.8-4.7,10.5-10.5,10.5c-4.6,0-8.5-3-9.9-7c-0.4,0.3-0.8,0.7-1.2,1
		c1.8,4.4,6.1,7.6,11.1,7.6c6.5,0,11.8-5.2,12-11.7L22.4,11.7z"/>
</g>
</svg>
