<?xml version="1.0" encoding="utf-8"?>
<!-- Generator: Adobe Illustrator 24.3.0, SVG Export Plug-In . SVG Version: 6.00 Build 0)  -->
<svg version="1.1" id="Capa_1" xmlns="http://www.w3.org/2000/svg" xmlns:xlink="http://www.w3.org/1999/xlink" x="0px" y="0px"
	 viewBox="0 0 24 24" style="enable-background:new 0 0 24 24;" xml:space="preserve">
<style type="text/css">
	.st0{fill:#0094DA;}
</style>
<g>
	<g>
		<g>
			<path class="st0" d="M8.6,0.5C5.9,1.3,3.5,3,2,5.4C1.8,5.8,1.6,6.2,1.6,6.6V2.4H0v6.4h6.4V7.2H2.8C4.6,3.8,8.1,1.6,12,1.5
				c4.6,0.1,8.6,3.1,10,7.5l1.5-0.5C21.6,2.2,14.9-1.4,8.6,0.5z"/>
		</g>
	</g>
	<g>
		<g>
			<path class="st0" d="M17.6,15.2v1.6h3.6c-1.8,3.4-5.3,5.6-9.2,5.7C7.4,22.4,3.4,19.4,2,15l-1.5,0.5c1.9,6.3,8.6,10,14.9,8.1
				c2.8-0.8,5.2-2.6,6.7-5.1c0.2-0.3,0.3-0.7,0.3-1v4.2H24v-6.4L17.6,15.2L17.6,15.2z"/>
		</g>
	</g>
</g>
</svg>
