<?xml version="1.0" encoding="utf-8"?>
<!-- Generator: Adobe Illustrator 24.3.0, SVG Export Plug-In . SVG Version: 6.00 Build 0)  -->
<svg version="1.1" id="Layer_1" xmlns="http://www.w3.org/2000/svg" xmlns:xlink="http://www.w3.org/1999/xlink" x="0px" y="0px"
	 viewBox="0 0 20 20" style="enable-background:new 0 0 20 20;" xml:space="preserve">
<style type="text/css">
	.st0{fill:#FFFFFF;}
</style>
<g>
	<g>
		<path class="st0" d="M15.7,9.2L6.6,0.3C6.4,0.1,6.1,0,5.8,0C5.5,0,5.2,0.1,5,0.3L4.3,1c-0.4,0.4-0.4,1.1,0,1.5L12,10l-7.6,7.5
			C4.1,17.7,4,18,4,18.3c0,0.3,0.1,0.6,0.3,0.8L5,19.7C5.2,19.9,5.5,20,5.8,20s0.6-0.1,0.8-0.3l9.1-8.9c0.2-0.2,0.3-0.5,0.3-0.8
			C16,9.7,15.9,9.4,15.7,9.2z"/>
	</g>
</g>
</svg>
