<?xml version="1.0" encoding="utf-8"?>
<!-- Generator: Adobe Illustrator 24.3.0, SVG Export Plug-In . SVG Version: 6.00 Build 0)  -->
<svg version="1.1" id="Layer_1" xmlns="http://www.w3.org/2000/svg" xmlns:xlink="http://www.w3.org/1999/xlink" x="0px" y="0px"
	 viewBox="0 0 16 12" style="enable-background:new 0 0 16 12;" xml:space="preserve">
<style type="text/css">
	.st0{fill:#FF4081;}
</style>
<path class="st0" d="M14.5,0.3h-13C0.6,0.3,0,0.9,0,1.7v8.5c0,0.8,0.7,1.5,1.5,1.5h13.1c0.8,0,1.5-0.7,1.5-1.5V1.7
	C16,0.9,15.3,0.3,14.5,0.3z M15.1,10.3c0,0.3-0.2,0.5-0.5,0.5H1.5c-0.3,0-0.5-0.2-0.5-0.5V1.7c0-0.3,0.2-0.5,0.5-0.5h13.1
	c0.3,0,0.5,0.2,0.5,0.5V10.3z"/>
<path class="st0" d="M6.3,7.1C6.5,6.8,6.7,6.4,6.7,6c0-1-0.8-1.7-1.7-1.7S3.3,5,3.3,6c0,0.4,0.2,0.8,0.4,1.1C3,7.6,2.5,8.4,2.5,9.3
	c0,0.3,0.2,0.5,0.5,0.5h4c0.3,0,0.5-0.2,0.5-0.5C7.5,8.4,7,7.6,6.3,7.1z M5,5.2c0.4,0,0.8,0.4,0.8,0.8S5.4,6.8,5,6.8S4.2,6.4,4.2,6
	S4.6,5.2,5,5.2z M3.5,8.8C3.7,8.2,4.3,7.7,5,7.7s1.3,0.5,1.5,1.1H3.5z"/>
<path class="st0" d="M13,4.8H9.5C9.2,4.8,9,5,9,5.2c0,0.3,0.2,0.5,0.5,0.5H13c0.3,0,0.5-0.2,0.5-0.5C13.5,5,13.3,4.8,13,4.8z"/>
<path class="st0" d="M13,2.3H3c-0.3,0-0.5,0.2-0.5,0.5C2.5,3,2.7,3.2,3,3.2h10c0.3,0,0.5-0.2,0.5-0.5C13.5,2.5,13.3,2.3,13,2.3z"/>
<path class="st0" d="M13,6.8H9.5C9.2,6.8,9,7,9,7.3s0.2,0.5,0.5,0.5H13c0.3,0,0.5-0.2,0.5-0.5S13.3,6.8,13,6.8z"/>
<path class="st0" d="M12,8.8H9.5C9.2,8.8,9,9,9,9.3s0.2,0.5,0.5,0.5H12c0.3,0,0.5-0.2,0.5-0.5S12.3,8.8,12,8.8z"/>
</svg>
